<svg xmlns="http://www.w3.org/2000/svg" width="662.885" height="480.713" viewBox="0 0 662.885 480.713"><defs><style>.a{fill:#3f3d56;}.b{fill:#f2f2f2;}.c{fill:#fff;}.d{fill:#d2345b;}.e{fill:#2f2e41;}.f{fill:#ececec;}.g{fill:#ffb8b8;}.h{opacity:0.1;}.i{fill:#d0cde1;}.j{fill:#a0616a;}</style></defs><rect class="a" width="610.28" height="390.464" transform="translate(52.604 36.877)"/><rect class="b" width="274.771" height="319.602" transform="translate(370.76 107.378)"/><path class="a" d="M172.42,627.215c8.352,15.488,26.076,22.137,26.076,22.137s4.184-18.463-4.167-33.951-26.076-22.137-26.076-22.137S164.069,611.726,172.42,627.215Z" transform="translate(-144.444 -221.724)"/><path class="c" d="M171.092,629.109c15.078,9.071,20.885,27.09,20.885,27.09s-18.639,3.311-33.717-5.761-20.885-27.09-20.885-27.09S156.014,620.037,171.092,629.109Z" transform="translate(-137.375 -228.713)"/><rect class="c" width="166.649" height="6.72" transform="translate(463.697 137.115)"/><rect class="c" width="166.649" height="6.72" transform="translate(463.697 151.899)"/><rect class="c" width="56.446" height="6.72" transform="translate(463.697 166.682)"/><rect class="c" width="166.649" height="6.72" transform="translate(121.489 338.855)"/><rect class="c" width="166.649" height="6.72" transform="translate(121.489 353.639)"/><rect class="c" width="56.446" height="6.72" transform="translate(121.489 368.422)"/><rect class="c" width="166.649" height="6.72" transform="translate(424.651 219.547)"/><rect class="c" width="166.649" height="6.72" transform="translate(424.651 234.33)"/><rect class="c" width="166.649" height="6.72" transform="translate(424.651 248.792)"/><rect class="c" width="166.649" height="6.72" transform="translate(424.651 263.254)"/><rect class="c" width="166.649" height="6.72" transform="translate(424.651 277.715)"/><rect class="c" width="166.649" height="6.72" transform="translate(424.651 292.177)"/><rect class="c" width="166.649" height="6.72" transform="translate(424.651 306.638)"/><rect class="c" width="166.649" height="6.72" transform="translate(424.651 321.1)"/><rect class="c" width="166.649" height="6.72" transform="translate(424.651 335.562)"/><rect class="c" width="166.649" height="6.72" transform="translate(424.651 350.024)"/><rect class="c" width="166.649" height="6.72" transform="translate(424.651 364.485)"/><path class="d" d="M447.663,391.541a60.574,60.574,0,0,1-22.538,47.21,59.867,59.867,0,0,1-8.308,5.662,58.711,58.711,0,0,1-5.438,2.726,60.127,60.127,0,0,1-19.444,4.924q-2.473.206-5,.2a60,60,0,0,1-9.935-.817c-1.157-.181-2.3-.4-3.427-.665a58.4,58.4,0,0,1-5.835-1.62,60.586,60.586,0,0,1-21.309-12.394,55.278,55.278,0,0,1-4.519-4.5,60.719,60.719,0,1,1,105.751-40.731Z" transform="translate(-182.126 -159.533)"/><path class="d" d="M706.107,307.943c.086,19.436-11.438,26.272-25.69,26.336q-.5,0-.988-.007-.991-.017-1.961-.082c-12.867-.854-22.893-7.943-22.973-26.018-.083-18.706,23.719-42.418,25.5-44.171h0l.1-.1S706.021,288.509,706.107,307.943Z" transform="translate(-259.915 -143.675)"/><path class="a" d="M683.953,331.31l9.38-13.229-9.4,14.677-.019,1.514q-.991-.017-1.961-.082l.93-19.448-.009-.15.017-.029.089-1.838L673.432,298.1l9.574,13.253.025.389.7-14.694-8.188-15.125,8.276,12.543L684.487,264l0-.1v.1l-.026,24.02,8.04-9.558-8.066,11.627-.155,13.155,7.494-12.657-7.516,14.591-.086,7.315,10.879-17.62-10.911,20.172Z" transform="translate(-264.403 -143.676)"/><path class="a" d="M922.338,378.786a101.231,101.231,0,0,0-101.231,101.23h0a29.646,29.646,0,0,1-29.646,29.646h-49.17a88.216,88.216,0,0,0-88.216,88.216H922.339V378.786Z" transform="translate(-259.816 -170.9)"/><rect class="e" width="13.015" height="390.464" transform="translate(350.875 36.877)"/><path class="f" d="M415.008,137.431V127.308a20.969,20.969,0,0,0-41.939,0v10.123H333.3v22.416H454.778V137.431Zm-20.969-25.308a12.292,12.292,0,1,1-12.292,12.292,12.292,12.292,0,0,1,12.292-12.292Z" transform="translate(-183.803 -106.339)"/><path class="g" d="M409.249,404.782s-6.04,17.19-2.323,19.835-12.544,24.243-12.544,24.243l-19.513-5.289L385.554,425.5s1.394-18.072,1.394-20.717S409.249,404.782,409.249,404.782Z" transform="translate(-193.653 -176.781)"/><path class="h" d="M409.249,404.782s-6.04,17.19-2.323,19.835-12.544,24.243-12.544,24.243l-19.513-5.289L385.554,425.5s1.394-18.072,1.394-20.717S409.249,404.782,409.249,404.782Z" transform="translate(-193.653 -176.781)"/><circle class="g" cx="15.868" cy="15.868" r="15.868" transform="translate(187.386 209.047)"/><path class="i" d="M386.47,476.609a58.436,58.436,0,0,1-5.835-1.62l3.037-20.825.94-6.421,4.816,1.808c.651.239,1.388.521,2.234.831a5.079,5.079,0,0,0,4.035-.145c4.657-2.133,7.426-10.434,7.426-10.434s.188,2.328.434,6.269c.441,6.92,1.077,18.822,1.273,31.816q-2.473.206-5,.2a60.01,60.01,0,0,1-9.935-.817C388.741,477.093,387.6,476.869,386.47,476.609Z" transform="translate(-195.02 -185.359)"/><path class="i" d="M383.252,433.742,381.9,446.129l-.658,5.994-2.3,21.063a58.438,58.438,0,0,1-5.835-1.62A60.584,60.584,0,0,1,351.8,459.173l-2.928-10.449a12.356,12.356,0,0,1,.188-1.858.026.026,0,0,1,.007-.022,13.137,13.137,0,0,1,.362-1.62.055.055,0,0,0,.007-.022,12,12,0,0,1,2.965-5.293c3.529-3.529,26.884-14.548,26.884-14.548l.441.926Z" transform="translate(-187.492 -181.937)"/><path class="e" d="M397.648,371.7c3.518-.126,7.282-.188,10.248,1.708a15,15,0,0,1,3.542,3.467c2.889,3.652,5.385,8.247,4.312,12.777l-1.246-.486a8.161,8.161,0,0,0,.787,3.5c-.175-.51-.763.315-.606.831l1.373,4.5a4.24,4.24,0,0,0-5.408,3.227c-.157-5.231-.7-11.23-4.943-14.293-2.14-1.545-4.848-2.016-7.454-2.435-2.4-.386-4.924-.755-7.227.037s-4.263,3.146-3.741,5.524a2.461,2.461,0,0,0-2.774,1.367,7.18,7.18,0,0,0-.568,3.287c-1.132.8-2.42-.788-2.881-2.1-1.083-3.067-2.045-6.333-1.462-9.533s3.191-6.259,6.444-6.269a2.259,2.259,0,0,1-.587-1.59l2.681-.227a2.964,2.964,0,0,1-1.771-.934C387.444,375.244,395.908,371.759,397.648,371.7Z" transform="translate(-194.733 -169.207)"/><path class="i" d="M437.735,444.93c-.412,3.3-2.769,12.639-5.148,21.613a58.726,58.726,0,0,1-5.438,2.726,60.13,60.13,0,0,1-19.444,4.924q-2.473.206-5,.2a60.01,60.01,0,0,1-9.935-.817c1.229-4.743,2.885-12.56,4.432-20.217.47-2.314.933-4.62,1.367-6.819,1.7-8.663,3.015-15.72,3.015-15.72s5.279-5.177,8.409-6.378a2.713,2.713,0,0,1,1.352-.224c2.581.427,6.11,6.6,6.11,6.6S433.3,436.1,437,442.1A4.387,4.387,0,0,1,437.735,444.93Z" transform="translate(-197.896 -181.664)"/><path class="i" d="M359.837,451.365l-.926,19.784a60.111,60.111,0,0,1-7.607-5.814,55.264,55.264,0,0,1-4.519-4.5c.759-3.333,1.4-6.139,1.779-7.809a.027.027,0,0,1,.007-.022c.2-.926.333-1.5.362-1.62a.056.056,0,0,0,.007-.022Z" transform="translate(-186.998 -188.099)"/><path class="i" d="M451.024,465.672a59.874,59.874,0,0,1-8.308,5.662,58.725,58.725,0,0,1-5.438,2.726l-1.757-10.239,1.764-19.393,9.841,2.458.738.188Z" transform="translate(-208.026 -186.455)"/><path class="j" d="M768.828,591l-4.578,19.076,16.787,10.682,4.578-22.891Z" transform="translate(-181.102 -140.048)"/></svg>